<svg width="39" height="39" viewBox="0 0 39 39" fill="none" xmlns="http://www.w3.org/2000/svg">
<path d="M26.3003 10.7397C23.3117 10.7397 22.0486 12.1639 19.9672 12.1639C17.8332 12.1639 16.2055 10.7501 13.6156 10.7501C11.0806 10.7501 8.37728 12.2957 6.66058 14.9286C4.25009 18.6414 4.65925 25.6341 8.56333 31.5913C9.95982 33.7238 11.8248 36.1154 14.2708 36.1414H14.3153C16.4412 36.1414 17.0727 34.7512 19.9983 34.735H20.0428C22.9247 34.735 23.5029 36.1332 25.6199 36.1332H25.6643C28.1104 36.1073 30.0754 33.4574 31.4719 31.333C32.477 29.8052 32.8506 29.0383 33.6215 27.31C27.974 25.1693 27.0668 17.1743 32.652 14.1092C30.9471 11.9774 28.5515 10.7427 26.2929 10.7427L26.3003 10.7397Z" fill="#292929"/>
<path d="M25.6421 2.97803C23.8631 3.09868 21.7877 4.22971 20.5721 5.70642C19.4691 7.04471 18.5618 9.02994 18.9176 10.9552H19.0599C20.9545 10.9552 22.8936 9.81604 24.0262 8.35635C25.1173 6.96699 25.9445 4.99805 25.6421 2.97803Z" fill="#292929"/>
</svg>
