<svg width="39" height="39" viewBox="0 0 39 39" fill="none" xmlns="http://www.w3.org/2000/svg">
<g clip-path="url(#clip0_127_23)">
<path d="M28.8656 25.2527C33.6766 22.7875 37.3236 20.909 37.638 20.763C38.6436 20.2639 39.6821 18.943 37.638 17.917C36.978 17.5943 33.4246 15.7743 28.8656 13.4272L22.5455 19.3838L28.8656 25.2525V25.2527Z" fill="#FFD900"/>
<path d="M22.5455 19.384L2.42169 38.3116C2.89404 38.3699 3.42731 38.2531 4.05603 37.9305C5.37601 37.2562 19.369 30.1248 28.8656 25.2543L22.5455 19.384Z" fill="#F43249"/>
<path d="M22.5455 19.384L28.8656 13.4568C28.8656 13.4568 5.47147 1.54215 4.05604 0.838817C3.52277 0.544066 2.92518 0.456513 2.39043 0.544067L22.5455 19.384Z" fill="#00EE76"/>
<path d="M22.5455 19.3839L2.39043 0.543945C1.57244 0.720436 0.88118 1.39486 0.88118 2.77415V36.0812C0.88118 37.3436 1.41608 38.2529 2.4217 38.3406L22.5455 19.3839Z" fill="#00D3FF"/>
</g>
<defs>
<clipPath id="clip0_127_23">
<rect width="37.9512" height="37.8985" fill="white" transform="translate(0.87677 0.511719)"/>
</clipPath>
</defs>
</svg>
