<svg width="26" height="26" viewBox="0 0 26 26" fill="none" xmlns="http://www.w3.org/2000/svg">
<path d="M13 0C5.832 0 0 5.832 0 13C0 20.168 5.832 26 13 26C20.168 26 26 20.168 26 13C26 5.832 20.168 0 13 0ZM13 2C19.086 2 24 6.914 24 13C24 19.086 19.086 24 13 24C6.914 24 2 19.086 2 13C2 6.914 6.914 2 13 2ZM12.906 7C9.582 7 6.906 9.676 6.906 13C6.906 16.324 9.582 19 12.906 19C15.305 19 17.356 17.562 18.312 15.531L16.5 14.688C15.855 16.058 14.508 17 12.906 17C10.629 17 8.906 15.277 8.906 13C8.906 10.723 10.629 9 12.906 9C14.508 9 15.856 9.941 16.5 11.313L18.313 10.469C17.355 8.438 15.305 7 12.905 7H12.906Z" fill="black"/>
</svg>
